<mxfile host="app.diagrams.net" modified="2024-02-13T02:48:28.928Z" agent="Mozilla/5.0 (Windows NT 10.0; Win64; x64; rv:122.0) Gecko/20100101 Firefox/122.0" version="22.1.18" etag="VbSSZYLD6g0ox5JgMZ9B" type="github">
  <diagram name="Page-1" id="N4It57PBn_9xh4u6Sepe">
    <mxGraphModel>
      <root>
        <mxCell id="0" />
        <mxCell id="1" parent="0" />
      </root>
    </mxGraphModel>
  </diagram>
</mxfile>
